<?xml version="1.0" standalone="no"?>
<!DOCTYPE svg PUBLIC "-//W3C//DTD SVG 20010904//EN"
 "http://www.w3.org/TR/2001/REC-SVG-20010904/DTD/svg10.dtd">
<svg version="1.0" xmlns="http://www.w3.org/2000/svg"
 width="421.000000pt" height="421.000000pt" viewBox="0 0 421.000000 421.000000"
 preserveAspectRatio="xMidYMid meet">
<metadata>
Created by potrace 1.14, written by Peter Selinger 2001-2017
</metadata>
<g transform="translate(0.000000,421.000000) scale(0.100000,-0.100000)"
fill="#000000" stroke="none">
<path d="M2380 3662 c-41 -13 -129 -44 -195 -69 -66 -24 -124 -45 -130 -47 -5
-1 -39 -17 -75 -35 -82 -41 -153 -96 -205 -157 -22 -26 -49 -58 -60 -71 -15
-16 -35 -24 -75 -29 -82 -8 -145 -22 -184 -38 -20 -8 -36 -13 -36 -11 0 2 -19
-2 -41 -11 -23 -8 -51 -16 -63 -18 -18 -3 -50 -14 -131 -46 -218 -83 -392
-263 -424 -439 -5 -25 -8 -73 -6 -107 2 -33 0 -65 -3 -70 -4 -5 -29 -21 -57
-34 -68 -34 -210 -179 -261 -265 -44 -77 -85 -167 -89 -199 -1 -12 -8 -43 -14
-70 -7 -27 -10 -55 -7 -62 3 -8 2 -15 -2 -18 -8 -5 -7 -104 2 -178 16 -134 71
-266 156 -373 51 -64 220 -229 280 -273 19 -14 40 -31 45 -37 30 -32 197 -100
275 -111 19 -3 44 -8 55 -11 18 -5 111 -78 190 -148 103 -92 192 -124 350
-128 56 -1 147 22 310 78 22 8 108 35 190 60 83 26 161 50 175 55 14 5 72 23
130 41 58 17 139 42 180 56 41 14 80 26 85 27 83 22 134 50 197 108 25 24 58
63 74 88 31 50 74 155 74 180 0 10 27 38 59 63 120 94 165 149 235 281 26 49
72 182 80 234 43 259 14 464 -91 645 -38 64 -144 177 -167 177 -27 0 -34 27
-39 150 -4 69 -13 149 -21 179 -8 30 -14 57 -14 60 1 3 -6 33 -17 66 -10 33
-20 66 -21 74 -1 7 -7 18 -13 24 -6 6 -11 17 -11 25 0 27 -91 168 -148 228
-117 125 -223 176 -372 179 -77 1 -109 -3 -170 -23z"/>
</g>
</svg>
